<svg width="28" height="24" viewBox="0 0 28 24" fill="none" xmlns="http://www.w3.org/2000/svg">
<path d="M12.1574 19.4285C10.9112 19.4285 9.89746 20.4537 9.89746 21.7139C9.89746 22.9744 10.9112 23.9999 12.1574 23.9999C13.4035 23.9999 14.4174 22.9744 14.4174 21.7139C14.4174 20.4537 13.4036 19.4285 12.1574 19.4285Z" fill="#00893D"/>
<path d="M21.1955 19.4285C19.9493 19.4285 18.9355 20.4537 18.9355 21.7139C18.9355 22.9744 19.9493 23.9999 21.1955 23.9999C22.4416 23.9999 23.4555 22.9744 23.4555 21.7139C23.4555 20.4537 22.4417 19.4285 21.1955 19.4285Z" fill="#00893D"/>
<path d="M19.4093 13.6874C19.4433 13.6909 19.4771 13.6925 19.5105 13.6925C20.003 13.6925 20.4256 13.322 20.4774 12.8243L20.9261 8.50584C20.9813 7.9741 20.5927 7.49862 20.0581 7.44378C19.5232 7.38971 19.0452 7.77526 18.9901 8.30687L18.5414 12.6253C18.4861 13.1569 18.8747 13.6324 19.4093 13.6874Z" fill="#00893D"/>
<mask id="path-4-inside-1" fill="white">
<path fill-rule="evenodd" clip-rule="evenodd" d="M26.9731 3.8391C27.2744 3.8391 27.5587 3.97793 27.743 4.21497C27.9272 4.452 27.9907 4.76051 27.915 5.05032L24.9032 16.5664C24.7916 16.9929 24.4044 17.2906 23.9613 17.2906H9.83402C9.3909 17.2906 9.0037 16.9929 8.89211 16.5664L5.88821 5.07974C5.88263 5.06077 5.87757 5.04155 5.87316 5.02219L5.06593 1.93548H1.82963C1.29217 1.93548 0.856445 1.50219 0.856445 0.967741C0.856445 0.43329 1.29217 0 1.82963 0H5.8184C6.26152 0 6.64872 0.297677 6.76031 0.724129L7.5748 3.8391H26.9731ZM10.5866 15.3549H23.209L25.7145 5.77427H8.0811L10.5866 15.3549Z"/>
</mask>
<path fill-rule="evenodd" clip-rule="evenodd" d="M26.9731 3.8391C27.2744 3.8391 27.5587 3.97793 27.743 4.21497C27.9272 4.452 27.9907 4.76051 27.915 5.05032L24.9032 16.5664C24.7916 16.9929 24.4044 17.2906 23.9613 17.2906H9.83402C9.3909 17.2906 9.0037 16.9929 8.89211 16.5664L5.88821 5.07974C5.88263 5.06077 5.87757 5.04155 5.87316 5.02219L5.06593 1.93548H1.82963C1.29217 1.93548 0.856445 1.50219 0.856445 0.967741C0.856445 0.43329 1.29217 0 1.82963 0H5.8184C6.26152 0 6.64872 0.297677 6.76031 0.724129L7.5748 3.8391H26.9731ZM10.5866 15.3549H23.209L25.7145 5.77427H8.0811L10.5866 15.3549Z" fill="#00893D"/>
<path d="M27.743 4.21497L27.3482 4.52183V4.52183L27.743 4.21497ZM27.915 5.05032L28.3988 5.17683L28.3988 5.17661L27.915 5.05032ZM24.9032 16.5664L25.3869 16.693L25.387 16.693L24.9032 16.5664ZM8.89211 16.5664L8.40838 16.6929L8.4084 16.693L8.89211 16.5664ZM5.88821 5.07974L6.37194 4.95324L6.37002 4.94591L6.36789 4.93864L5.88821 5.07974ZM5.87316 5.02219L6.36065 4.91106L6.35889 4.90334L6.35689 4.89569L5.87316 5.02219ZM5.06593 1.93548L5.54966 1.80898L5.45199 1.43548H5.06593V1.93548ZM6.76031 0.724129L7.24405 0.597643L7.24403 0.597552L6.76031 0.724129ZM7.5748 3.8391L7.09107 3.96558L7.18873 4.3391H7.5748V3.8391ZM23.209 15.3549V15.8549H23.595L23.6927 15.4814L23.209 15.3549ZM10.5866 15.3549L10.1029 15.4814L10.2005 15.8549H10.5866V15.3549ZM25.7145 5.77427L26.1982 5.90077L26.362 5.27427H25.7145V5.77427ZM8.0811 5.77427V5.27427H7.43353L7.59737 5.90077L8.0811 5.77427ZM28.1377 3.9081C27.8584 3.54875 27.4282 3.3391 26.9731 3.3391V4.3391C27.1207 4.3391 27.2591 4.40712 27.3482 4.52183L28.1377 3.9081ZM28.3988 5.17661C28.5138 4.73618 28.4172 4.26764 28.1377 3.9081L27.3482 4.52183C27.4373 4.63636 27.4676 4.78484 27.4313 4.92403L28.3988 5.17661ZM25.387 16.693L28.3988 5.17683L27.4313 4.92381L24.4195 16.4399L25.387 16.693ZM23.9613 17.7906C24.6301 17.7906 25.2174 17.3411 25.3869 16.693L24.4195 16.4399C24.3659 16.6447 24.1787 16.7906 23.9613 16.7906V17.7906ZM9.83402 17.7906H23.9613V16.7906H9.83402V17.7906ZM8.4084 16.693C8.57798 17.3411 9.16521 17.7906 9.83402 17.7906V16.7906C9.6166 16.7906 9.42942 16.6447 9.37582 16.4399L8.4084 16.693ZM5.40448 5.20624L8.40838 16.6929L9.37584 16.4399L6.37194 4.95324L5.40448 5.20624ZM5.38566 5.13332C5.39253 5.16345 5.40025 5.19269 5.40853 5.22084L6.36789 4.93864C6.36501 4.92886 6.36261 4.91964 6.36065 4.91106L5.38566 5.13332ZM4.5822 2.06199L5.38942 5.14869L6.35689 4.89569L5.54966 1.80898L4.5822 2.06199ZM1.82963 2.43548H5.06593V1.43548H1.82963V2.43548ZM0.356445 0.967741C0.356445 1.78098 1.01868 2.43548 1.82963 2.43548V1.43548C1.56567 1.43548 1.35645 1.22341 1.35645 0.967741H0.356445ZM1.82963 -0.5C1.01868 -0.5 0.356445 0.154507 0.356445 0.967741H1.35645C1.35645 0.712074 1.56567 0.5 1.82963 0.5V-0.5ZM5.8184 -0.5H1.82963V0.5H5.8184V-0.5ZM7.24403 0.597552C7.07444 -0.0505222 6.48722 -0.5 5.8184 -0.5V0.5C6.03583 0.5 6.223 0.645877 6.2766 0.850705L7.24403 0.597552ZM8.05854 3.71261L7.24405 0.597643L6.27658 0.850615L7.09107 3.96558L8.05854 3.71261ZM26.9731 3.3391H7.5748V4.3391H26.9731V3.3391ZM23.209 14.8549H10.5866V15.8549H23.209V14.8549ZM25.2307 5.64777L22.7252 15.2284L23.6927 15.4814L26.1982 5.90077L25.2307 5.64777ZM8.0811 6.27427H25.7145V5.27427H8.0811V6.27427ZM11.0703 15.2284L8.56483 5.64777L7.59737 5.90077L10.1029 15.4814L11.0703 15.2284Z" fill="#00893D" mask="url(#path-4-inside-1)"/>
</svg>
