<svg width="21" height="13" viewBox="0 0 21 13" fill="none" xmlns="http://www.w3.org/2000/svg">
<path fill-rule="evenodd" clip-rule="evenodd" d="M0.745727 5.2054C0.425228 5.63523 0.205241 5.97397 0.0880302 6.17701C-0.0293434 6.38034 -0.0293434 6.61966 0.0880302 6.82299C0.205241 7.02603 0.425228 7.36477 0.745727 7.7946C1.27618 8.50601 1.90208 9.21699 2.62279 9.88285C4.72059 11.821 7.18781 13 10.006 13C12.8242 13 15.2914 11.821 17.3892 9.88285C18.1099 9.21699 18.7358 8.50601 19.2663 7.7946C19.5868 7.36477 19.8068 7.02603 19.924 6.82299C20.0414 6.61966 20.0414 6.38034 19.924 6.17701C19.8068 5.97397 19.5868 5.63523 19.2663 5.2054C18.7358 4.49399 18.1099 3.78301 17.3892 3.11715C15.2914 1.17902 12.8242 0 10.006 0C7.18781 0 4.72059 1.17902 2.62279 3.11715C1.90208 3.78301 1.27618 4.49399 0.745727 5.2054ZM3.83954 8.89491C3.19224 8.29688 2.62602 7.65369 2.14675 7.01094C2.01072 6.8285 1.89008 6.65716 1.78512 6.49998C1.89008 6.34281 2.01072 6.17146 2.14675 5.98903C2.62602 5.34627 3.19224 4.70308 3.83954 4.10505C5.65034 2.43207 7.71709 1.44443 10.0061 1.44443C12.2952 1.44443 14.3619 2.43207 16.1727 4.10505C16.82 4.70308 17.3862 5.34627 17.8655 5.98903C18.0015 6.17146 18.1222 6.34281 18.2271 6.49998C18.1222 6.65716 18.0015 6.8285 17.8655 7.01094C17.3862 7.65369 16.82 8.29688 16.1727 8.89491C14.3619 10.5679 12.2952 11.5555 10.0061 11.5555C7.71709 11.5555 5.65034 10.5679 3.83954 8.89491Z" fill="#8F8F8F"/>
<path d="M10.0053 9.38886C8.1632 9.38886 6.66992 8.09546 6.66992 6.49997C6.66992 4.90448 8.1632 3.61108 10.0053 3.61108C11.8473 3.61108 13.3406 4.90448 13.3406 6.49997C13.3406 8.09546 11.8473 9.38886 10.0053 9.38886Z" fill="#8F8F8F"/>
</svg>
