<svg width="26" height="26" viewBox="0 0 26 26" fill="none" xmlns="http://www.w3.org/2000/svg">
<rect x="0.274414" width="24.8098" height="25.0435" fill="#D8D8D8" fill-opacity="0.01"/>
<path fill-rule="evenodd" clip-rule="evenodd" d="M5.32546 16.5287C8.44171 19.6743 13.5324 19.6743 16.6487 16.5287C19.7642 13.3838 19.7642 8.2808 16.6526 5.10296C13.5324 1.95333 8.44171 1.95333 5.32546 5.09892C2.20922 8.2445 2.20922 13.3831 5.32546 16.5287ZM15.2824 6.4793C17.6443 8.89154 17.6443 12.7652 15.2824 15.1493C12.9211 17.5328 9.0545 17.5328 6.69325 15.1493C4.33199 12.7658 4.33199 8.8628 6.69325 6.4793C9.0545 4.09581 12.9211 4.09581 15.2824 6.4793Z" fill="#4A4A4A"/>
<path d="M16.6487 16.5287L16.5066 16.388L16.6487 16.5287ZM5.32546 16.5287L5.46755 16.388L5.32546 16.5287ZM16.6526 5.10296L16.7955 4.96304L16.7947 4.96221L16.6526 5.10296ZM5.32546 5.09892L5.18338 4.95816L5.32546 5.09892ZM15.2824 15.1493L15.1403 15.0086L15.2824 15.1493ZM15.2824 6.4793L15.4253 6.33938L15.4245 6.33855L15.2824 6.4793ZM6.69325 15.1493L6.55116 15.2901L6.69325 15.1493ZM6.69325 6.4793L6.55116 6.33855L6.69325 6.4793ZM16.5066 16.388C13.4686 19.4545 8.50554 19.4545 5.46755 16.388L5.18338 16.6695C8.37788 19.894 13.5962 19.894 16.7907 16.6695L16.5066 16.388ZM16.5097 5.24289C19.5456 8.34337 19.5445 13.3214 16.5066 16.388L16.7907 16.6695C19.9839 13.4462 19.9829 8.21824 16.7955 4.96304L16.5097 5.24289ZM5.46755 5.23967C8.50547 2.17315 13.4685 2.17301 16.5106 5.24372L16.7947 4.96221C13.5963 1.73365 8.37795 1.73352 5.18338 4.95816L5.46755 5.23967ZM5.46755 16.388C2.42853 13.3203 2.42853 8.3073 5.46755 5.23967L5.18338 4.95816C1.98991 8.18169 1.98991 13.4459 5.18338 16.6695L5.46755 16.388ZM15.4245 15.2901C17.8641 12.8275 17.8629 8.82891 15.4253 6.33938L15.1395 6.61923C17.4257 8.95418 17.4246 12.7028 15.1403 15.0086L15.4245 15.2901ZM6.55116 15.2901C8.99068 17.7526 12.985 17.7526 15.4245 15.2901L15.1403 15.0086C12.8573 17.3131 9.11833 17.3131 6.83533 15.0086L6.55116 15.2901ZM6.55116 6.33855C4.11268 8.79999 4.11268 12.8287 6.55116 15.2901L6.83533 15.0086C4.55129 12.703 4.55129 8.92561 6.83533 6.62006L6.55116 6.33855ZM15.4245 6.33855C12.985 3.87606 8.99068 3.87606 6.55116 6.33855L6.83533 6.62006C9.11833 4.31555 12.8573 4.31555 15.1403 6.62006L15.4245 6.33855Z" fill="#4A4A4A"/>
<path d="M15.3778 16.6268L20.8875 22.1884C21.265 22.5695 21.8771 22.5695 22.2545 22.1884C22.632 21.8074 22.632 21.1896 22.2545 20.8086L16.7448 15.247C16.3674 14.8659 15.7553 14.8659 15.3778 15.247C15.0004 15.628 15.0004 16.2458 15.3778 16.6268Z" fill="#4A4A4A" stroke="#4A4A4A" stroke-width="0.4"/>
</svg>
