<svg width="30" height="28" viewBox="0 0 30 28" fill="none" xmlns="http://www.w3.org/2000/svg">
<path fill-rule="evenodd" clip-rule="evenodd" d="M14.7299 13.9999C11.3976 13.9999 8.69614 11.3882 8.69614 8.16658C8.69614 4.94492 11.3976 2.33325 14.7299 2.33325C18.0623 2.33325 20.7637 4.94492 20.7637 8.16658C20.7637 11.3882 18.0623 13.9999 14.7299 13.9999ZM25.5907 24.4999V22.1666C25.5907 18.9449 22.8893 16.3333 19.557 16.3333H9.90292C6.57055 16.3333 3.86914 18.9449 3.86914 22.1666V24.4999C3.86914 25.1443 4.40942 25.6666 5.0759 25.6666C5.74237 25.6666 6.28265 25.1443 6.28265 24.4999V22.1666C6.28265 20.2336 7.9035 18.6666 9.90292 18.6666H19.557C21.5564 18.6666 23.1772 20.2336 23.1772 22.1666V24.4999C23.1772 25.1443 23.7175 25.6666 24.384 25.6666C25.0505 25.6666 25.5907 25.1443 25.5907 24.4999ZM18.3502 8.16658C18.3502 10.0996 16.7294 11.6666 14.73 11.6666C12.7305 11.6666 11.1097 10.0996 11.1097 8.16658C11.1097 6.23359 12.7305 4.66659 14.73 4.66659C16.7294 4.66659 18.3502 6.23359 18.3502 8.16658Z" fill="#4A4A4A"/>
<mask id="mask0" mask-type="alpha" maskUnits="userSpaceOnUse" x="3" y="2" width="23" height="24">
<path fill-rule="evenodd" clip-rule="evenodd" d="M14.7299 13.9999C11.3976 13.9999 8.69614 11.3882 8.69614 8.16658C8.69614 4.94492 11.3976 2.33325 14.7299 2.33325C18.0623 2.33325 20.7637 4.94492 20.7637 8.16658C20.7637 11.3882 18.0623 13.9999 14.7299 13.9999ZM25.5907 24.4999V22.1666C25.5907 18.9449 22.8893 16.3333 19.557 16.3333H9.90292C6.57055 16.3333 3.86914 18.9449 3.86914 22.1666V24.4999C3.86914 25.1443 4.40942 25.6666 5.0759 25.6666C5.74237 25.6666 6.28265 25.1443 6.28265 24.4999V22.1666C6.28265 20.2336 7.9035 18.6666 9.90292 18.6666H19.557C21.5564 18.6666 23.1772 20.2336 23.1772 22.1666V24.4999C23.1772 25.1443 23.7175 25.6666 24.384 25.6666C25.0505 25.6666 25.5907 25.1443 25.5907 24.4999ZM18.3502 8.16658C18.3502 10.0996 16.7294 11.6666 14.73 11.6666C12.7305 11.6666 11.1097 10.0996 11.1097 8.16658C11.1097 6.23359 12.7305 4.66659 14.73 4.66659C16.7294 4.66659 18.3502 6.23359 18.3502 8.16658Z" fill="white"/>
</mask>
<g mask="url(#mask0)">
<rect x="0.249023" width="28.9621" height="28" fill="#00893D"/>
</g>
</svg>
