<svg width="209" height="24" viewBox="0 0 209 24" fill="none" xmlns="http://www.w3.org/2000/svg">
<path fill-rule="evenodd" clip-rule="evenodd" d="M107.556 14.0875C107.152 14.0875 106.771 14.2688 106.515 14.5802C105.627 15.5935 104.53 16.0955 103.224 16.0955C102.401 16.0955 101.667 15.9142 101.021 15.5563C100.375 15.1938 99.8728 14.6918 99.5103 14.0457C99.1477 13.3996 98.9711 12.6652 98.9711 11.8424C98.9711 11.0197 99.1524 10.2853 99.5103 9.63918C99.8728 8.99308 100.375 8.49108 101.021 8.12852C101.667 7.76596 102.401 7.58932 103.224 7.58932C104.289 7.58932 105.218 7.924 106.008 8.59334C106.325 8.86758 106.552 9.02562 106.999 9.02562C107.747 9.02562 108.351 8.42135 108.351 7.67299C108.351 7.27789 108.184 6.92463 107.914 6.67363L107.91 6.66898L107.891 6.65038C107.389 6.20415 106.813 5.84159 106.194 5.57665C105.265 5.17225 104.224 4.96774 103.071 4.96774C101.704 4.96774 100.472 5.26057 99.3801 5.85089C98.2878 6.44121 97.4232 7.25465 96.8004 8.3005C96.1729 9.34634 95.8614 10.527 95.8614 11.8424C95.8614 13.1579 96.1729 14.3385 96.8004 15.3843C97.4279 16.4302 98.2878 17.2436 99.3801 17.8339C100.472 18.4243 101.7 18.7171 103.052 18.7171C104.205 18.7171 105.246 18.5126 106.185 18.1082C107.101 17.7131 107.872 17.1414 108.5 16.393C108.746 16.1513 108.904 15.8073 108.904 15.4355C108.904 14.6918 108.3 14.0875 107.556 14.0875ZM91.7338 4.97704C92.4683 4.97704 93.0632 5.57665 93.0632 6.30642V11.8471V17.3877C93.0632 18.1175 92.4636 18.7171 91.7338 18.7171C91.0041 18.7171 90.4045 18.1175 90.4045 17.3877V17.2762C89.2424 18.1779 87.7829 18.7171 86.1932 18.7171C82.4003 18.7171 79.3232 15.64 79.3232 11.8471C79.3232 8.05415 82.4003 4.97704 86.1932 4.97704C87.7782 4.97704 89.2424 5.51622 90.4045 6.41797V6.30642C90.4045 5.57665 91.0041 4.97704 91.7338 4.97704ZM90.4045 12.1027V11.5961C90.2743 9.38353 88.4383 7.63116 86.1932 7.63116C83.8644 7.63116 81.9773 9.51833 81.9773 11.8471C81.9773 14.1758 83.8644 16.063 86.1932 16.063C88.4383 16.0676 90.2743 14.3153 90.4045 12.1027ZM143.961 5.2048C144.658 5.2048 145.23 5.74863 145.281 6.43191C146.448 5.52552 147.912 4.98168 149.502 4.98168C153.295 4.98168 156.372 8.05878 156.372 11.8517C156.372 15.6446 153.295 18.7217 149.502 18.7217C147.912 18.7217 146.448 18.1826 145.286 17.2762V21.4967C145.286 22.2265 144.691 22.8215 143.961 22.8215C143.231 22.8215 142.636 22.2265 142.636 21.4967V12.112C142.632 12.0283 142.632 11.94 142.632 11.8517C142.632 11.7634 142.632 11.6797 142.636 11.5914V6.52488C142.636 5.79977 143.231 5.2048 143.961 5.2048ZM149.502 7.63116C147.173 7.63116 145.286 9.51833 145.286 11.8471C145.286 14.1758 147.173 16.063 149.502 16.063C151.83 16.063 153.718 14.1758 153.718 11.8471C153.718 9.52298 151.83 7.63116 149.502 7.63116ZM189.253 10.3132C189.946 10.3132 190.508 10.8756 190.508 11.5682C190.508 12.2608 189.946 12.8232 189.253 12.8232C188.56 12.8232 187.998 12.2608 187.998 11.5682C188.003 10.8756 188.56 10.3132 189.253 10.3132ZM205.159 13.5204V14.2967V14.3199L205.154 14.3664L205.15 14.3896L205.145 14.4129L205.136 14.4594L205.127 14.5012L205.122 14.5244L205.108 14.5663L205.099 14.5849L205.089 14.6081L205.075 14.6453L205.066 14.6685L205.048 14.7057L205.038 14.7243L205.015 14.7615L204.992 14.794L204.978 14.8126L204.95 14.8452L204.922 14.8777L204.894 14.9102L204.862 14.9381L204.829 14.966L204.797 14.9939L204.759 15.0171L204.722 15.0404L204.704 15.0497L204.666 15.0683L204.643 15.0776L204.606 15.0962L204.569 15.1101L204.546 15.1194L204.504 15.1333L204.48 15.138L204.439 15.1473L204.415 15.1519L204.374 15.1566L204.35 15.1612L204.308 15.1659H204.285H204.239H204.216L204.169 15.1612L204.146 15.1566L204.104 15.1519L204.081 15.1473L204.039 15.138L203.997 15.124L203.974 15.1148L203.937 15.1008L203.913 15.0915L203.872 15.0729L203.834 15.0543L203.816 15.045L203.783 15.0218L203.765 15.0078L203.746 14.9939L203.727 14.98L203.695 14.9567L203.662 14.9288L203.63 14.9009L203.602 14.873L203.574 14.8405L203.546 14.808L203.523 14.7754L203.509 14.7522L203.486 14.715L203.476 14.6964L203.458 14.6592L203.439 14.622L203.425 14.5849L203.416 14.5616L203.402 14.5198L203.397 14.4965L203.388 14.4547L203.384 14.4315L203.379 14.4082L203.374 14.385L203.37 14.3618L203.365 14.3199V14.2967V14.2409V13.5251H202.366C201.868 13.5251 201.366 13.4507 200.911 13.2462C200.506 13.0649 200.167 12.7953 199.925 12.4234C199.684 12.0469 199.577 11.6193 199.577 11.1731C199.577 10.7269 199.679 10.2946 199.925 9.91806C200.167 9.54621 200.506 9.28126 200.906 9.09534C201.362 8.89082 201.864 8.8118 202.361 8.8118H206.135C206.633 8.8118 207.135 8.88617 207.59 9.09534C207.995 9.27662 208.329 9.54621 208.571 9.91806C208.817 10.2946 208.92 10.7269 208.92 11.1731C208.92 11.6193 208.817 12.0469 208.571 12.4234C208.329 12.7953 207.995 13.0649 207.585 13.2462C207.13 13.4507 206.628 13.5251 206.131 13.5251H205.159V13.5204ZM194.84 13.5204V14.2734C194.84 14.7615 194.44 15.1612 193.952 15.1612C193.464 15.1612 193.065 14.7615 193.065 14.2734V9.6996C193.065 9.21154 193.464 8.8118 193.952 8.8118H195.839C196.337 8.8118 196.839 8.88617 197.294 9.09534C197.699 9.27662 198.033 9.54621 198.275 9.91806C198.522 10.2946 198.624 10.7269 198.624 11.1731C198.624 11.6193 198.522 12.0469 198.275 12.4234C198.033 12.7953 197.699 13.0649 197.29 13.2462C196.834 13.4507 196.332 13.5251 195.835 13.5251H194.84V13.5204ZM205.159 10.3364V12.0005H206.079C206.354 12.0005 206.679 11.9586 206.893 11.7773C207.079 11.624 207.144 11.4101 207.144 11.1731C207.144 10.9314 207.083 10.7129 206.893 10.5595C206.674 10.3782 206.349 10.3364 206.079 10.3364H205.159V10.3364ZM203.379 12.0005V10.3364H202.459C202.184 10.3364 201.859 10.3782 201.645 10.5595C201.455 10.7176 201.394 10.936 201.394 11.1731C201.394 11.4101 201.459 11.624 201.645 11.7773C201.864 11.9586 202.189 12.0005 202.459 12.0005H203.379V12.0005ZM194.84 10.3364V12.0005H195.76C196.035 12.0005 196.36 11.9586 196.574 11.7773C196.76 11.624 196.825 11.4101 196.825 11.1731C196.825 10.9314 196.764 10.7129 196.574 10.5595C196.355 10.3782 196.03 10.3364 195.76 10.3364H194.84V10.3364ZM184.27 11.2986C184.8 10.6571 185.121 9.82975 185.121 8.93265C185.121 6.8735 183.452 5.2048 181.393 5.2048H181.388H175.671C174.885 5.2048 174.249 5.83231 174.235 6.61785V6.64109V7.09196V17.0484V17.2343V17.2715V17.3041V17.3133C174.235 17.9641 174.765 18.494 175.415 18.494H175.425H175.638H181.723C183.959 18.494 185.772 16.6812 185.772 14.4454C185.767 13.1718 185.186 12.0376 184.27 11.2986ZM177.312 16.2117V12.8232H178.009H181.258C182.192 12.8232 182.955 13.5809 182.955 14.5198C182.955 15.4541 182.197 16.2164 181.258 16.2164H178.079H177.312V16.2117ZM177.874 7.71017H181.002C181.723 7.71017 182.304 8.29585 182.304 9.01632C182.304 9.7368 181.718 10.3178 181.002 10.3178H177.935H177.307V7.71017H177.874ZM170.27 12.8232H169.41H169.15H161.457C161.917 14.4547 163.418 15.6586 165.194 15.6586C166.486 15.6586 167.704 15.2217 168.531 14.4594C169.108 13.9295 170.005 13.9713 170.535 14.5477C171.065 15.1241 171.023 16.0212 170.446 16.551C169.098 17.7875 167.183 18.494 165.189 18.494C161.485 18.494 158.473 15.482 158.473 11.7773C158.473 8.07273 161.485 5.0607 165.189 5.0607C168.569 5.0607 171.409 7.72412 171.771 11.0755C171.78 11.1452 171.785 11.2196 171.785 11.2939C171.79 12.1353 171.106 12.8139 170.27 12.8232ZM168.954 10.3132C168.35 8.86292 166.918 7.84497 165.25 7.84497C163.581 7.84497 162.149 8.86292 161.545 10.3132H168.954ZM167.369 4.26587C166.514 4.26587 165.821 3.57328 165.821 2.71801C165.821 1.86274 166.514 1.17017 167.369 1.17017C168.225 1.17017 168.917 1.86274 168.917 2.71801C168.917 3.57328 168.225 4.26587 167.369 4.26587ZM162.586 4.26587C161.731 4.26587 161.038 3.57328 161.038 2.71801C161.038 1.86274 161.731 1.17017 162.586 1.17017C163.442 1.17017 164.134 1.86274 164.134 2.71801C164.134 3.57328 163.442 4.26587 162.586 4.26587ZM55.7243 4.97704C59.5172 4.97704 62.5943 8.05415 62.5943 11.8471C62.5943 15.64 59.5172 18.7171 55.7243 18.7171C51.9313 18.7171 48.8542 15.64 48.8542 11.8471C48.8496 8.05415 51.9267 4.97704 55.7243 4.97704ZM55.7243 7.63116C53.3955 7.63116 51.5083 9.51833 51.5083 11.8471C51.5083 14.1758 53.3955 16.063 55.7243 16.063C58.053 16.063 59.9402 14.1758 59.9402 11.8471C59.9402 9.52298 58.053 7.63116 55.7243 7.63116ZM35.0584 5.65102C35.077 5.66961 35.0909 5.68821 35.1095 5.70216L39.4137 10.197L43.7923 5.64638C44.0712 5.37214 44.4524 5.20014 44.8754 5.20014C45.726 5.20014 46.4186 5.89273 46.4186 6.74335V16.9415C46.4186 17.7875 45.726 18.4847 44.8754 18.4847C44.0248 18.4847 43.3322 17.7921 43.3322 16.9415V10.1412L40.4177 13.1718C40.4085 13.1811 40.3992 13.1904 40.3852 13.2043C40.3806 13.209 40.3806 13.209 40.3759 13.2136C40.1296 13.4507 39.8228 13.5762 39.5067 13.5994H39.5021C39.4928 13.5994 39.4835 13.5994 39.4742 13.5994H39.4649C39.4556 13.5994 39.4509 13.5994 39.4416 13.5994C39.437 13.5994 39.4323 13.5994 39.4277 13.5994C39.423 13.5994 39.4137 13.5994 39.4091 13.5994C39.4044 13.5994 39.3951 13.5994 39.3905 13.5994C39.3858 13.5994 39.3812 13.5994 39.3766 13.5994C39.3673 13.5994 39.3626 13.5994 39.3533 13.5994H39.344C39.3347 13.5994 39.3254 13.5994 39.3161 13.5994H39.3115C38.9954 13.5808 38.684 13.4507 38.4423 13.2136C38.4376 13.209 38.4376 13.209 38.433 13.2043C38.4237 13.195 38.4144 13.1857 38.4004 13.1718L35.5093 10.1691V16.9415C35.5093 17.7875 34.8167 18.4847 33.9661 18.4847C33.1201 18.4847 32.4229 17.7921 32.4229 16.9415V6.74335C32.4229 5.89273 33.1154 5.20014 33.9661 5.20014C34.3983 5.20479 34.7795 5.37213 35.0584 5.65102ZM124.75 5.2048C125.591 5.2048 126.279 5.89273 126.279 6.73406V6.98041V9.56945H129.658C131.276 9.56945 132.522 9.93201 133.391 10.6525C134.256 11.373 134.692 12.442 134.692 13.8597C134.692 15.3658 134.214 16.5139 133.261 17.3041C132.303 18.0942 130.96 18.4893 129.226 18.4893H124.755C123.913 18.4893 123.225 17.8014 123.225 16.9601V16.407V6.97576V6.72941C123.221 5.88808 123.909 5.2048 124.75 5.2048ZM126.275 11.8471V16.2117H129.045C129.84 16.2117 130.467 16.0165 130.913 15.6214C131.364 15.231 131.587 14.6592 131.587 13.9155C131.587 12.535 130.741 11.8471 129.045 11.8471H126.275ZM138.309 5.2048C139.15 5.2048 139.838 5.89273 139.838 6.73406V16.9647C139.838 17.8061 139.15 18.494 138.309 18.494C137.467 18.494 136.779 17.8061 136.779 16.9647V6.73406C136.784 5.88809 137.472 5.2048 138.309 5.2048ZM115.547 5.2048H120.065C120.753 5.2048 121.32 5.76724 121.32 6.45982C121.32 7.14775 120.757 7.71017 120.065 7.71017H117.066V16.974C117.066 17.8107 116.383 18.494 115.547 18.494C114.71 18.494 114.027 17.8107 114.027 16.974V7.71017H111.047C110.359 7.71017 109.797 7.14775 109.797 6.45982C109.797 5.77188 110.359 5.2048 111.047 5.2048H115.547ZM66.5778 5.2048C67.4238 5.2048 68.1164 5.89738 68.1164 6.74335V10.4433H74.1544V6.74335C74.1544 5.89738 74.8469 5.2048 75.6929 5.2048C76.5389 5.2048 77.2315 5.89738 77.2315 6.74335V16.9554C77.2315 17.8014 76.5389 18.494 75.6929 18.494C74.8469 18.494 74.1544 17.8014 74.1544 16.9554V13.0463H68.1164V16.9554C68.1164 17.8014 67.4238 18.494 66.5778 18.494C65.7318 18.494 65.0392 17.8014 65.0392 16.9554V6.74335C65.0392 5.89273 65.7318 5.2048 66.5778 5.2048Z" fill="#00893D"/>
<path fill-rule="evenodd" clip-rule="evenodd" d="M14.8405 23.5093C11.1777 24.1601 7.61252 23.0538 5.00488 20.7948C7.87747 21.8081 11.0336 22.1335 14.2408 21.6082C14.3245 21.5943 14.4082 21.5803 14.4919 21.5664C14.6824 21.5339 14.8684 21.492 15.0543 21.4502C19.828 20.316 23.0352 15.8352 22.5983 10.9731C22.9516 14.1246 22.4914 17.2064 21.3758 19.9906C19.6885 21.7709 17.4388 23.0492 14.8405 23.5093Z" fill="url(#paint0_linear)"/>
<path fill-rule="evenodd" clip-rule="evenodd" d="M14.7332 15.073C14.6821 14.9894 14.6263 14.9103 14.5752 14.8267C14.5798 14.8267 14.5798 14.822 14.5845 14.822C14.6542 14.9382 14.7053 15.0265 14.7332 15.073Z" fill="#FFF8B4"/>
<path fill-rule="evenodd" clip-rule="evenodd" d="M12.5013 5.63257C13.8028 9.90891 16.1083 13.7437 19.1482 16.8673H16.4894C13.7284 13.6461 11.6413 9.82989 10.4561 5.63257H12.5013Z" fill="#FFD800"/>
<path fill-rule="evenodd" clip-rule="evenodd" d="M15.082 5.63257C13.9013 9.82524 11.8236 13.6461 9.06721 16.8673H6.41309C9.43906 13.7437 11.7399 9.90426 13.0321 5.63257H15.082Z" fill="#E5310E"/>
<path fill-rule="evenodd" clip-rule="evenodd" d="M19.3723 14.3989C17.4015 15.4401 15.1564 16.0351 12.7672 16.0351C10.3827 16.0351 8.13294 15.4448 6.16211 14.3989V12.1399C8.07252 13.3438 10.3362 14.041 12.7672 14.041C15.1936 14.041 17.4572 13.3438 19.3723 12.1399V14.3989Z" fill="#5CB136"/>
<path fill-rule="evenodd" clip-rule="evenodd" d="M4.27469 3.58737C4.30722 3.55483 4.33976 3.51764 4.3723 3.48511C4.33976 3.52229 4.30722 3.55483 4.27469 3.58737ZM5.00445 20.795C3.02432 19.0798 1.59732 16.6999 1.10461 13.9203C0.42133 10.0763 1.67634 6.33445 4.16778 3.70357L4.15848 3.71288C3.04291 6.4925 2.58274 9.57425 2.936 12.7257C2.96389 13.0093 2.99643 13.2928 3.04756 13.5764C3.9865 18.8614 8.96472 22.4079 14.2404 21.6084C14.3241 21.5945 14.4078 21.5805 14.4914 21.5666C11.2935 22.2545 8.13269 21.9338 5.00445 20.795Z" fill="url(#paint1_linear)"/>
<path fill-rule="evenodd" clip-rule="evenodd" d="M10.6988 0.184797C14.3616 -0.465951 17.9267 0.640318 20.5344 2.89934C17.6618 1.88604 14.5057 1.56066 11.2984 2.08591C11.2147 2.09985 11.1311 2.11379 11.0474 2.12774C5.96693 3.02949 2.48543 7.67303 2.94095 12.721C2.58769 9.56949 3.04786 6.48774 4.16343 3.70812C5.84608 1.92322 8.0958 0.644968 10.6988 0.184797Z" fill="url(#paint2_linear)"/>
<path fill-rule="evenodd" clip-rule="evenodd" d="M21.2587 20.107C21.2262 20.1395 21.1937 20.1767 21.1611 20.2093C21.1937 20.1721 21.2262 20.1395 21.2587 20.107ZM20.529 2.89937C22.5091 4.61456 23.9361 6.99442 24.4288 9.77404C25.1121 13.6181 23.8571 17.3599 21.3656 19.9908L21.3749 19.9815C22.4905 17.2019 22.9507 14.1201 22.5974 10.9686C22.5742 10.6851 22.537 10.4016 22.4859 10.118C21.5469 4.83302 16.5687 1.28645 11.293 2.08594C11.2093 2.09988 11.1257 2.11383 11.042 2.12777C14.2446 1.43519 17.4054 1.76056 20.529 2.89937Z" fill="url(#paint3_linear)"/>
<defs>
<linearGradient id="paint0_linear" x1="23.5133" y1="16.4392" x2="4.80018" y2="19.5672" gradientUnits="userSpaceOnUse">
<stop stop-color="#FFE500"/>
<stop offset="1" stop-color="#F18500"/>
</linearGradient>
<linearGradient id="paint1_linear" x1="1.25615" y1="5.02654" x2="10.4167" y2="23.5772" gradientUnits="userSpaceOnUse">
<stop stop-color="#FDC300"/>
<stop offset="1" stop-color="#D7030D"/>
</linearGradient>
<linearGradient id="paint2_linear" x1="1.97659" y1="7.31201" x2="20.7222" y2="3.98269" gradientUnits="userSpaceOnUse">
<stop stop-color="#FFED00"/>
<stop offset="1" stop-color="#9FC515"/>
</linearGradient>
<linearGradient id="paint3_linear" x1="16.8799" y1="1.08829" x2="20.2742" y2="20.3626" gradientUnits="userSpaceOnUse">
<stop stop-color="#32A934"/>
<stop offset="1" stop-color="#C7D300"/>
</linearGradient>
</defs>
</svg>
